<svg version="1.1" id="Layer_1" xmlns="http://www.w3.org/2000/svg" xmlns:xlink="http://www.w3.org/1999/xlink" x="0px" y="0px"
	 width="46.629px" height="46.617px" viewBox="0 0 46.629 46.617" enable-background="new 0 0 46.629 46.617" xml:space="preserve" fill="#7F7F7F">

<path fill-rule="evenodd" clip-rule="evenodd" d="M41.244,12.769c-0.033-3.449-4.23-7.037-7.685-7.037
	c-6.82,0-13.641,0-20.463,0c-3.838,0-7.737,3.611-7.747,7.512C5.325,21.08,5.333,28.78,5.345,36.62
	c0.009,3.102,1.525,4.545,4.639,4.557c4.428,0.021,8.856-0.028,13.281-0.03c4.608-0.004,9.217,0.013,13.823-0.032
	c2.411-0.025,4.146-1.519,4.159-3.887C41.303,29.032,41.323,20.963,41.244,12.769z M24.033,33.397
	c-0.542,0.547-0.922,0.56-1.471,0.005c-3.277-3.31-6.581-6.593-10.25-10.256c2.098,0,3.729-0.06,5.355,0.021
	c1.187,0.061,1.705-0.23,1.672-1.559c-0.059-2.461,0.021-2.463,2.455-2.463c1.378,0,2.757,0.069,4.128-0.021
	c1.135-0.076,1.516,0.363,1.382,1.435c-0.049,0.412,0.033,0.84-0.013,1.255c-0.113,0.991,0.251,1.395,1.294,1.352
	c1.718-0.07,3.438-0.02,5.689-0.02C30.614,26.805,27.312,30.09,24.033,33.397z M9.82,10.731c0.567-3,1.191-2.809,2.729-2.795
	c7.107,0.064,14.22,0.454,21.33,0.364c1.498-0.02,2.081-0.569,3.062,2.431C27.73,10.731,18.854,10.731,9.82,10.731z"/>

</svg>
