
<svg version="1.1" id="Layer_1" xmlns="http://www.w3.org/2000/svg" xmlns:xlink="http://www.w3.org/1999/xlink" x="0px" y="0px"
	 width="46.629px" height="46.617px" viewBox="0 0 46.629 46.617" enable-background="new 0 0 46.629 46.617" xml:space="preserve" fill="#7F7F7F">


	<g>
		<path fill-rule="evenodd" clip-rule="evenodd" d="M46.591,9.811c-0.02-3.113-1.795-4.773-4.9-4.777
			C29.466,5.021,17.243,5.021,5.021,5.032c-3.323,0.003-5.001,1.687-5.007,5.043c-0.02,8.551-0.018,17.101-0.003,25.651
			c0.005,3.489,1.64,5.141,5.084,5.146c6.08,0.016,12.159,0.006,18.239,0.006s12.163,0.014,18.242-0.006
			c3.264-0.008,4.994-1.614,5.016-4.842C46.642,27.293,46.642,18.551,46.591,9.811z M40.466,36.676
			c-5.131-0.078-10.258-0.074-15.389-0.002c-1.354,0.02-1.872-0.254-1.856-1.751c0.079-7.98,0.06-15.96,0.013-23.939
			c-0.009-1.245,0.207-1.79,1.635-1.768c5.254,0.085,10.512,0.082,15.766,0.002c1.395-0.021,1.674,0.477,1.652,1.745
			c-0.072,3.988-0.025,7.979-0.025,11.969c0,3.99-0.068,7.979,0.034,11.967C42.333,36.368,41.851,36.697,40.466,36.676z"/>
		<path fill-rule="evenodd" clip-rule="evenodd" d="M32.841,25.493c-2.08,0-4.164-0.059-6.246,0.018
			c-1.49,0.058-1.146-0.941-1.2-1.773c-0.06-0.917,0.028-1.554,1.255-1.536c4.101,0.062,8.205,0.072,12.303-0.005
			c1.398-0.025,1.282,0.768,1.308,1.688c0.024,0.99-0.021,1.703-1.362,1.633C36.886,25.419,34.86,25.493,32.841,25.493z"/>
		<path fill-rule="evenodd" clip-rule="evenodd" d="M32.653,20.22c-2.016,0-4.034-0.062-6.045,0.023
			c-1.291,0.054-1.233-0.701-1.212-1.563c0.017-0.817-0.153-1.638,1.165-1.623c4.157,0.052,8.316,0.06,12.475-0.002
			c1.475-0.022,1.132,0.936,1.213,1.771c0.104,1.046-0.252,1.457-1.357,1.417C36.813,20.166,34.733,20.222,32.653,20.22z"/>
		<path fill-rule="evenodd" clip-rule="evenodd" d="M32.751,30.641c-2.016,0-4.035-0.069-6.048,0.025
			c-1.379,0.064-1.305-0.742-1.315-1.675c-0.013-0.916,0.035-1.539,1.264-1.52c4.097,0.066,8.193,0.064,12.287,0
			c1.173-0.02,1.373,0.485,1.314,1.469c-0.051,0.879,0.172,1.784-1.264,1.724C36.911,30.573,34.831,30.641,32.751,30.641z"/>
	</g>

	
</svg>
