
<svg version="1.1" id="Layer_1" xmlns="http://www.w3.org/2000/svg" xmlns:xlink="http://www.w3.org/1999/xlink" x="0px" y="0px"
	 width="46.629px" height="46.617px" viewBox="0 0 46.629 46.617" enable-background="new 0 0 46.629 46.617" xml:space="preserve" fill="#7F7F7F">
<g >
	<g>
		<path fill-rule="evenodd" clip-rule="evenodd" d="M23.426,4.286C12.939,4.232,4.287,12.838,4.29,23.319
			c0.005,10.477,8.666,19.076,19.151,19.012c10.467-0.061,19.021-8.785,18.896-19.268C42.212,12.783,33.71,4.34,23.426,4.286z
			 M24.461,38.513C16.043,39.097,8.092,32.075,8.062,24.14c-0.008-1.601,0.372-2.7,1.859-3.448c3.693-1.854,6.029-5.043,8.264-9.023
			c4.727,5.606,10.284,8.217,17.082,7.735c2.301-0.163,3.021,0.773,3.262,2.915C39.393,30.091,32.638,37.946,24.461,38.513z"/>
		<path fill-rule="evenodd" clip-rule="evenodd" d="M19.618,25.147c-0.027,1.287-0.655,2.021-1.964,2.064
			c-1.303,0.037-2.025-0.637-2.074-1.938c-0.05-1.313,0.646-2.01,1.944-2.051C18.823,23.179,19.521,23.843,19.618,25.147z"/>
		<path fill-rule="evenodd" clip-rule="evenodd" d="M29.206,23.216c1.313,0.135,1.928,0.893,1.831,2.178
			c-0.1,1.316-0.911,1.904-2.188,1.818c-1.327-0.09-1.911-0.904-1.832-2.177C27.105,23.699,27.938,23.179,29.206,23.216z"/>
	</g>
</g>
</svg>
