<svg version="1.1" id="Layer_1" xmlns="http://www.w3.org/2000/svg" xmlns:xlink="http://www.w3.org/1999/xlink" x="0px" y="0px"
	 width="46.629px" height="46.617px" viewBox="0 0 46.629 46.617" enable-background="new 0 0 46.629 46.617" xml:space="preserve" fill="#7F7F7F">


	<g>
		<path fill-rule="evenodd" clip-rule="evenodd" d="M5.044,25.696c0-4.012,0.09-8.024-0.046-12.03
			c-0.056-1.676,0.896-1.382,1.855-1.392c0.985-0.01,1.87-0.245,1.849,1.408c-0.099,7.524-0.011,15.049-0.076,22.575
			C8.614,37.6,8.936,38.012,10.331,38c7.47-0.071,14.941,0.015,22.409-0.074c1.529-0.015,1.657,0.604,1.638,1.831
			c-0.021,1.176-0.028,1.886-1.607,1.865c-7.801-0.088-15.6-0.034-23.399-0.044c-2.936-0.004-4.319-1.404-4.325-4.348
			C5.035,33.385,5.044,29.539,5.044,25.696z"/>
		<path fill-rule="evenodd" clip-rule="evenodd" d="M41.615,9.458c-0.006-2.641-1.439-4.042-4.093-4.056
			c-3.457-0.019-6.914-0.005-10.374-0.005c-3.513,0-7.025-0.011-10.541,0.004c-2.823,0.013-4.279,1.443-4.287,4.228
			c-0.011,6.916-0.012,13.833,0.004,20.75c0.006,2.743,1.516,4.29,4.29,4.304c6.971,0.031,13.942,0.031,20.912-0.003
			c2.578-0.013,4.08-1.552,4.089-4.142C41.642,23.512,41.637,16.485,41.615,9.458z M19.073,10.89
			c5.255,0.066,10.513,0.068,15.771-0.004c1.44-0.021,1.275,0.828,1.229,1.693c-0.046,0.828,0.433,1.935-1.204,1.88
			c-2.625-0.088-5.256-0.023-7.884-0.023s-5.26-0.07-7.885,0.026c-1.44,0.054-1.279-0.822-1.232-1.689
			C17.913,11.94,17.443,10.869,19.073,10.89z M27.854,29.169c-1.531-0.037-3.065-0.011-4.598-0.011c-1.42,0-2.845-0.04-4.266,0.014
			c-0.832,0.033-1.231-0.204-1.14-1.097c0.054-0.54,0.038-1.094,0.003-1.641c-0.045-0.714,0.265-0.952,0.962-0.946
			c3.01,0.023,6.018,0.022,9.027,0c0.689-0.005,1.013,0.21,0.965,0.938c-0.041,0.6-0.041,1.206,0,1.803
			C28.859,28.951,28.556,29.187,27.854,29.169z M34.873,21.907c-2.627-0.097-5.26-0.025-7.889-0.025
			c-2.632,0-5.265-0.076-7.89,0.027c-1.63,0.063-1.228-1.009-1.219-1.849c0.011-0.825-0.446-1.897,1.194-1.875
			c5.258,0.071,10.521,0.073,15.779-0.002c1.627-0.023,1.227,1.015,1.215,1.855C36.054,20.856,36.523,21.968,34.873,21.907z"/>
	</g>


</svg>
